<svg xmlns="http://www.w3.org/2000/svg" width="20" height="20" viewBox="0 0 20 20"><path fill="#1a1a1a" d="m18.35 9.837-.016-.18c-.15-1.723-1.238-4.964-4.252-4.964-2.238 0-3.927 2.278-5.419 4.287-1.19 1.608-2.221 2.988-3.356 2.988-.301-.032-.69-.187-.928-.539-.214-.318-.27-.726-.159-1.216.175-.776 1.175-1.495 2.23-2.262.579-.409 1.174-.841 1.586-1.258C9.226 5.51 9.83 4.652 9.83 3.272S9.092 1.206 8.473.912C7.235.324 5.419.667 4.26 1.696c-.174.163-.349.318-.508.465C2.586 3.231 1.801 3.958 0 3.402V5.64c2.388 1.086 4.395-.988 5.157-1.944.587-.628 1.206-.996 1.666-.996h.024c.206.008.38.09.508.237.206.245.285.53.245.85-.087.669-.761 1.453-1.999 2.31-1.452 1.005-3.88 2.687-4.07 4.802-.143 1.519.619 3.038 1.81 3.625 2.776 1.356 4.466-.98 6.258-3.446 1.373-1.902 2.674-3.707 4.483-3.707 1.626 0 2.229 1.388 2.229 2.262v.172l-.159.032c-3.943.719-6.093 4.524-6.093 6.28 0 1.755 1.444 3.258 3.221 3.258 2.079 0 4.65-1.83 5.062-6.974l.016-.187H20V9.837zm-2.15 2.638c-.317 3.078-1.849 4.515-2.777 4.515-.42 0-1.007-.359-1.007-1.028 0-.752 1.087-3.03 3.53-3.708l.286-.073z"/></svg>